<svg width="227" height="60" fill="none" xmlns="http://www.w3.org/2000/svg"><g clip-path="url(#a)"><path d="M19 0 0 13.646v35.0041l10.5341 10.534-.232-36.7645L19 15.3082l8.6979 7.1114-.232 36.7645L38 48.6501V13.646L19 0Z" fill="#252420"/><path d="M25.9939 29.5921 19 33.791l-6.9938-4.1989v12.2585L19 46.055l6.9939-4.2044V29.5921Z" fill="#FF7401"/></g><path d="m60.0781 21.9046-4.8906 18.6875h-4.8281l7.1094-22.75h3.0156l-.4063 4.0625Zm3.8594 18.6875-4.9219-18.6875-.4531-4.0625h3.0625l7.1719 22.75h-4.8594Zm.1719-8.4844v3.7969H53.8438v-3.7969h10.2656ZM75.125 16.5764v24.0157H70.75V16.5764h4.375Zm8.8906 7.1094-5.9531 8.4063-3.5781 4.0156-1.5469-3.3281 2.75-4.0157 3.1094-5.0781h5.2187Zm-4.5625 16.9063-3.6875-7.7657 3.0156-2.7812 5.6876 10.5469h-5.0157Zm14.0625-3.8907v-7.8125c0-.5104-.0625-.9166-.1875-1.2187-.1146-.3021-.2916-.5208-.5312-.6563-.2292-.1458-.5104-.2187-.8438-.2187-.375 0-.6875.0781-.9375.2344-.25.1562-.4375.3802-.5625.6718-.1146.2917-.1719.6407-.1719 1.0469h-4.3906c0-.7291.1406-1.4166.4219-2.0625.2813-.6562.6927-1.2291 1.2344-1.7187.5521-.5 1.2083-.8907 1.9687-1.1719.7604-.2813 1.6146-.4219 2.5625-.4219 1.125 0 2.125.1927 3 .5781.875.375 1.5677.974 2.0781 1.7969.5105.8229.7657 1.8906.7657 3.2031v7.5313c0 .9479.0469 1.7187.1406 2.3125.1042.5937.2552 1.1042.4531 1.5312v.2657h-4.4062c-.1979-.4688-.349-1.0521-.4532-1.75a16.3068 16.3068 0 0 1-.1406-2.1407Zm.5313-6.4375.0156 2.625h-1.6094c-.4166 0-.7812.0678-1.0937.2032-.3021.1354-.5573.3281-.7656.5781-.2084.2396-.3646.5208-.4688.8437-.0938.323-.1406.6667-.1406 1.0313 0 .4062.0573.75.1718 1.0312.1146.2813.2865.4948.5157.6407.2291.1458.5.2187.8125.2187.4791 0 .8958-.0989 1.25-.2969.3541-.1979.6146-.4375.7812-.7187.1771-.2813.2344-.5417.1719-.7813l1 1.7032c-.125.3854-.2969.7864-.5156 1.2031-.2084.4167-.474.8021-.7969 1.1562-.3229.3542-.724.6459-1.2031.875-.4688.2188-1.0261.3282-1.6719.3282-.9062 0-1.7344-.2084-2.4844-.625-.75-.4167-1.3437-1-1.7812-1.75-.4271-.75-.6406-1.6407-.6406-2.6719 0-.8542.1354-1.625.4062-2.3125.2812-.6979.6979-1.2865 1.25-1.7656.5521-.4896 1.25-.8646 2.0938-1.125.8437-.2604 1.8333-.3907 2.9687-.3907h1.7344Zm15.2971 6.5938V16.5921h4.39v24l-3.968.0156-.422-3.75Zm-8.766-4.125v-1.125c0-1.375.115-2.5781.344-3.6094.239-1.0312.594-1.8906 1.062-2.5781.469-.6875 1.042-1.1979 1.719-1.5313.688-.3437 1.474-.5156 2.359-.5156.803 0 1.506.2031 2.11.6094.614.3958 1.135.9531 1.562 1.6719.427.7187.771 1.5677 1.032 2.5468.26.9792.442 2.0521.546 3.2188v1.625c-.124 1.1042-.317 2.1354-.578 3.0937-.25.9584-.593 1.7917-1.031 2.5-.427.7084-.943 1.2657-1.547 1.6719-.604.3959-1.307.5938-2.109.5938-.886 0-1.672-.1771-2.359-.5313-.678-.3541-1.25-.875-1.719-1.5625-.459-.6979-.808-1.5521-1.047-2.5625-.229-1.0208-.344-2.1927-.344-3.5156Zm4.375-1.125v1.125c0 .7917.037 1.474.109 2.0469.084.5625.214 1.026.391 1.3906.188.3542.432.6198.735.7969.302.1666.677.25 1.124.25.584 0 1.058-.1459 1.422-.4375.365-.3021.636-.7136.813-1.2344.187-.5313.292-1.1406.312-1.8281v-2.9532c-.02-.5729-.088-1.0885-.203-1.5468-.114-.4584-.276-.849-.484-1.1719-.208-.3229-.469-.5729-.781-.75-.302-.1771-.657-.2656-1.063-.2656-.437 0-.812.0885-1.125.2656-.302.1771-.542.4531-.719.8281-.177.3646-.312.8386-.406 1.4219-.083.5729-.125 1.2604-.125 2.0625Zm18.891 9.2969c-1.156 0-2.183-.1771-3.078-.5313-.886-.3541-1.636-.8646-2.25-1.5312-.615-.6771-1.084-1.4948-1.407-2.4532-.323-.9583-.484-2.052-.484-3.2812v-1.3906c0-1.375.156-2.5782.469-3.6094.312-1.0417.755-1.9167 1.328-2.625.573-.7083 1.276-1.2344 2.109-1.5781.844-.3542 1.797-.5313 2.86-.5313 1.062 0 1.994.1771 2.797.5313.812.3437 1.484.8646 2.015 1.5625.531.6875.932 1.5416 1.203 2.5625.271 1.0208.406 2.2083.406 3.5625v2h-11.328v-3.0782h7.032v-.3906c0-.6875-.073-1.2604-.219-1.7187-.146-.4688-.375-.8177-.688-1.0469-.312-.2292-.729-.3438-1.25-.3438-.437 0-.807.0886-1.109.2657-.302.1771-.542.4531-.719.8281-.177.375-.307.8646-.39 1.4687-.084.5938-.125 1.3073-.125 2.1407v1.3906c0 .7812.067 1.4375.203 1.9687.135.5209.333.948.593 1.2813.271.3229.599.5573.985.7031.385.1354.833.2031 1.344.2031.77 0 1.463-.1354 2.078-.4062.625-.2813 1.156-.6615 1.593-1.1406l1.75 2.6562c-.302.3959-.718.7917-1.25 1.1875-.531.3959-1.166.7188-1.906.9688-.739.25-1.594.375-2.562.375Zm12.906-13.7188v13.4063h-4.391V23.6858h4.125l.266 3.5Zm-.625 4.375-1.203.0313c-.021-1.1875.083-2.2813.312-3.2813.23-1 .573-1.8698 1.032-2.6094.468-.7395 1.057-1.3125 1.765-1.7187.709-.4063 1.537-.6094 2.485-.6094.614 0 1.182.1146 1.703.3438.521.2187.974.5677 1.359 1.0468.386.4688.682 1.0834.891 1.8438.208.75.312 1.651.312 2.7031v11.2813h-4.375v-10.75c0-.75-.073-1.3229-.218-1.7188-.146-.4062-.355-.6875-.626-.8437-.27-.1667-.604-.25-1-.25-.416 0-.781.1146-1.093.3437-.313.2292-.568.5521-.766.9688-.187.4062-.333.8854-.437 1.4375-.094.5521-.141 1.1458-.141 1.7812Zm8.234-.4375-1.578.2031c-.021-1.1145.078-2.151.297-3.1093.219-.9688.557-1.8125 1.016-2.5313.458-.7291 1.031-1.2969 1.718-1.7031.698-.4063 1.506-.6094 2.422-.6094.688 0 1.313.1146 1.875.3438.563.2291 1.042.5989 1.438 1.1093.406.5.713 1.1615.922 1.9844.219.8229.328 1.8229.328 3v10.7813h-4.391V29.8264c0-.7604-.073-1.3437-.218-1.75-.146-.4062-.355-.6822-.626-.8281-.27-.1458-.593-.2187-.968-.2187s-.703.1041-.985.3125c-.27.2083-.5.5-.687.875-.188.3646-.328.7968-.422 1.2968-.094.4896-.141 1.0261-.141 1.6094Z" fill="#252420"/><path d="M160.391 27.2952v13.2969H156V23.6858h4.109l.282 3.6094Zm-.657 4.2656-1.172.0313c-.02-1.2709.099-2.4115.36-3.4219.271-1.0104.651-1.8698 1.14-2.5781.5-.7188 1.094-1.2657 1.782-1.6407.698-.3854 1.474-.5781 2.328-.5781.656 0 1.255.1146 1.797.3438.552.2291 1.026.5937 1.422 1.0937.395.5.703 1.1667.921 2 .219.8229.329 1.8334.329 3.0313v10.75h-4.391V29.8108c0-.7291-.073-1.2916-.219-1.6875-.146-.4062-.364-.6875-.656-.8437-.292-.1667-.656-.25-1.094-.25-.416 0-.786.1198-1.109.3593-.323.2292-.594.5469-.813.9532-.208.4062-.369.8854-.484 1.4375-.104.5521-.151 1.1458-.141 1.7812Zm19.563 5.1406v-7.8125c0-.5104-.063-.9166-.188-1.2187-.114-.3021-.291-.5208-.531-.6563-.229-.1458-.51-.2187-.844-.2187-.375 0-.687.0781-.937.2344-.25.1562-.438.3802-.563.6718-.114.2917-.172.6407-.172 1.0469h-4.39c0-.7291.14-1.4166.422-2.0625.281-.6562.692-1.2291 1.234-1.7187.552-.5 1.208-.8907 1.969-1.1719.76-.2813 1.614-.4219 2.562-.4219 1.125 0 2.125.1927 3 .5781.875.375 1.568.974 2.079 1.7969.51.8229.765 1.8906.765 3.2031v7.5313c0 .9479.047 1.7187.141 2.3125.104.5937.255 1.1042.453 1.5312v.2657h-4.406c-.198-.4688-.349-1.0521-.453-1.75a16.2556 16.2556 0 0 1-.141-2.1407Zm.531-6.4375.016 2.625h-1.61c-.416 0-.781.0678-1.093.2032-.302.1354-.558.3281-.766.5781-.208.2396-.365.5208-.469.8437-.094.323-.14.6667-.14 1.0313 0 .4062.057.75.172 1.0312.114.2813.286.4948.515.6407.229.1458.5.2187.813.2187.479 0 .895-.0989 1.25-.2969.354-.1979.614-.4375.781-.7187.177-.2813.234-.5417.172-.7813l1 1.7032c-.125.3854-.297.7864-.516 1.2031-.208.4167-.474.8021-.797 1.1562-.323.3542-.724.6459-1.203.875-.469.2188-1.026.3282-1.672.3282-.906 0-1.734-.2084-2.484-.625-.75-.4167-1.344-1-1.781-1.75-.427-.75-.641-1.6407-.641-2.6719 0-.8542.135-1.625.406-2.3125.281-.6979.698-1.2865 1.25-1.7656.552-.4896 1.25-.8646 2.094-1.125.844-.2604 1.833-.3907 2.969-.3907h1.734Zm14.61 5.7657c0-.2917-.099-.5521-.297-.7813-.198-.2291-.511-.4635-.938-.7031-.427-.25-.995-.526-1.703-.8281-.771-.3125-1.453-.6354-2.047-.9688-.594-.3333-1.099-.7031-1.515-1.1094-.407-.4062-.714-.8697-.922-1.3906-.209-.5208-.313-1.1146-.313-1.7812 0-.7188.13-1.3802.391-1.9844.271-.6146.656-1.151 1.156-1.6094.5-.4687 1.109-.8333 1.828-1.0937.729-.2709 1.547-.4063 2.453-.4063 1.271 0 2.36.224 3.266.6719.917.4375 1.62 1.0521 2.109 1.8437.49.7917.735 1.7136.735 2.7657h-4.375c0-.375-.058-.7084-.172-1-.115-.3021-.302-.5365-.563-.7032-.25-.1666-.588-.25-1.015-.25-.313 0-.594.0678-.844.2032-.24.1354-.432.3177-.578.5468-.136.2188-.203.4792-.203.7813 0 .2292.047.4323.14.6094.104.1771.266.3489.485.5156.218.1667.51.3437.875.5312.375.1771.833.375 1.375.5938 1.125.4167 2.046.8646 2.765 1.3437.729.4792 1.271 1.0417 1.625 1.6875.354.6355.532 1.4219.532 2.3594 0 .75-.146 1.4323-.438 2.0469-.281.6146-.693 1.1458-1.234 1.5937-.542.448-1.193.7917-1.954 1.0313-.75.2396-1.588.3594-2.515.3594-1.365 0-2.516-.2709-3.453-.8125-.938-.5417-1.646-1.2344-2.125-2.0782-.479-.8541-.719-1.7395-.719-2.6562h4.156c.021.5625.125 1.0052.313 1.3281.198.3125.463.5313.797.6563.333.125.703.1875 1.109.1875s.74-.0521 1-.1563c.271-.1146.474-.2864.609-.5156.136-.2396.204-.5156.204-.8281Zm11.296-19.4375v24h-4.375v-24h4.375Zm-.625 14.9687-1.187.0313c0-1.1875.12-2.2813.359-3.2813.25-1 .61-1.8698 1.078-2.6094.469-.7395 1.037-1.3125 1.703-1.7187.678-.4063 1.422-.6094 2.235-.6094.698 0 1.333.1198 1.906.3594.573.2396 1.068.6146 1.485 1.125.427.5104.755 1.1823.984 2.0156.229.8334.344 1.849.344 3.0469v10.6719h-4.391V29.8889c0-.7291-.073-1.302-.219-1.7187-.146-.4167-.364-.7083-.656-.875-.292-.1771-.656-.2656-1.094-.2656-.468 0-.87.1198-1.203.3593-.323.2292-.583.5469-.781.9532-.198.4062-.344.8854-.438 1.4375-.083.5521-.125 1.1458-.125 1.7812Zm16.485-4.1094v13.1407h-4.375V23.6858h4.125l.25 3.7656Zm3.984-3.8906-.062 4.3594c-.198-.0417-.438-.0729-.719-.0938-.271-.0208-.511-.0312-.719-.0312-.489 0-.906.0781-1.25.2344-.344.1458-.63.3698-.859.6718-.219.2917-.386.6563-.5 1.0938-.115.4375-.183.9323-.203 1.4844l-.828-.3125c0-1.1042.083-2.1146.25-3.0313.177-.9271.437-1.7291.781-2.4062.343-.6875.755-1.2188 1.234-1.5938.49-.375 1.042-.5625 1.656-.5625.209 0 .427.0209.657.0625.239.0313.427.0729.562.125Z" fill="#FF7500"/><defs><clipPath id="a"><path fill="#fff" d="M0 0h38v59.1841H0z"/></clipPath></defs></svg>