<svg width="56" height="56" fill="none" xmlns="http://www.w3.org/2000/svg"><path fill-rule="evenodd" clip-rule="evenodd" d="M14 5.6c1.5464 0 2.8 1.2536 2.8 2.8v2.8h2.8c1.5464 0 2.8 1.2536 2.8 2.8 0 1.5464-1.2536 2.8-2.8 2.8h-2.8v2.8c0 1.5464-1.2536 2.8-2.8 2.8-1.5464 0-2.8-1.2536-2.8-2.8v-2.8H8.4c-1.5464 0-2.8-1.2536-2.8-2.8 0-1.5464 1.2536-2.8 2.8-2.8h2.8V8.4c0-1.5464 1.2536-2.8 2.8-2.8Zm0 28c1.5464 0 2.8 1.2536 2.8 2.8v2.8h2.8c1.5464 0 2.8 1.2536 2.8 2.8 0 1.5464-1.2536 2.8-2.8 2.8h-2.8v2.8c0 1.5464-1.2536 2.8-2.8 2.8-1.5464 0-2.8-1.2536-2.8-2.8v-2.8H8.4c-1.5464 0-2.8-1.2536-2.8-2.8 0-1.5464 1.2536-2.8 2.8-2.8h2.8v-2.8c0-1.5464 1.2536-2.8 2.8-2.8ZM33.5999 5.6c1.2704 0 2.3816.8553 2.7067 2.0835l3.3018 12.4735 9.3907 5.4177a2.8 2.8 0 0 1 0 4.8506l-9.3907 5.4177-3.3018 12.4735a2.8 2.8 0 0 1-5.4135 0L27.5913 35.843l-9.3905-5.4177a2.8 2.8 0 0 1 0-4.8506l9.3905-5.4177 3.3018-12.4735A2.8 2.8 0 0 1 33.5999 5.6Z" fill="#FF7500"/></svg>